<svg id="Capa_1" enable-background="new 0 0 512.002 512.002" height="512" viewBox="0 0 512.002 512.002" width="512" xmlns="http://www.w3.org/2000/svg"><g><path d="m322.118 218.323c-5.404-2.412-11.722-1.423-16.128 2.526-13.78 12.35-31.533 19.151-49.989 19.151s-36.209-6.801-49.989-19.151c-4.407-3.949-10.724-4.939-16.128-2.526-5.403 2.414-8.883 7.778-8.883 13.696v54.981c0 3.246 1.053 6.403 3 9l60 80c2.833 3.777 7.278 6 12 6s9.167-2.223 12-6l60-80c1.947-2.597 3-5.754 3-9v-54.98c0-5.918-3.48-11.283-8.883-13.697z" fill="#fbceaf"/><path d="m322.118 218.323c-5.404-2.412-11.722-1.423-16.128 2.526-13.78 12.35-31.533 19.151-49.989 19.151v142c4.722 0 9.167-2.223 12-6l60-80c1.947-2.597 3-5.754 3-9v-54.98c0-5.918-3.48-11.283-8.883-13.697z" fill="#f7c29d"/><path d="m346.001 80h-180c-8.284 0-15 6.716-15 15v70c0 57.898 47.103 105 105 105s105-47.102 105-105v-70c0-8.284-6.716-15-15-15z" fill="#ffd9c0"/><path d="m346.001 80h-90v190c57.897 0 105-47.102 105-105v-70c0-8.284-6.716-15-15-15z" fill="#fbceaf"/><path d="m381.001 15c0-8.284-6.716-15-15-15h-155c-33.084 0-60 26.916-60 60v35h210c7.116-12.698 20-37.902 20-80z" fill="#a97450"/><path d="m366.001 0h-110v95h105c7.116-12.698 20-37.902 20-80 0-8.284-6.716-15-15-15z" fill="#885142"/><path d="m268.841 489.246-76.018-125.873c-2.716-4.497-7.586-7.246-12.84-7.246h-26.753l4.347-51.442c.419-4.966-1.655-9.816-5.535-12.943-3.881-3.127-9.061-4.123-13.823-2.657l-47.955 14.755c-22.017 6.775-39.263 30.125-39.263 53.16v140c0 8.284 6.716 15 15 15h190c5.412 0 10.404-2.915 13.063-7.628 2.66-4.713 2.574-10.494-.223-15.126z" fill="#47568c"/><path d="m421.738 303.841-47.954-14.755c-4.762-1.465-9.942-.469-13.823 2.657-3.88 3.127-5.954 7.977-5.534 12.942l4.346 51.442h-26.754c-5.254 0-10.124 2.749-12.84 7.246l-76.017 125.873c-2.798 4.632-2.884 10.413-.224 15.126 2.659 4.713 7.651 7.628 13.064 7.628h190c8.284 0 15-6.716 15-15v-140c-.001-23.035-17.247-46.385-39.264-53.159z" fill="#29376d"/><path d="m356.319 452h-64.083c-8.284 0-15-6.716-15-15s6.716-15 15-15h64.083c8.284 0 15 6.716 15 15s-6.716 15-15 15z" fill="#dfe7f4"/><path d="m268.001 358-12-16-75-66.078-42.782 13.164c-5.851 1.8-10.021 6.974-10.535 13.074l-5.721 67.705c-.353 4.183 1.062 8.323 3.902 11.414 2.841 3.091 6.846 4.85 11.044 4.85h34.609l71.643 118.627c2.765 4.578 7.683 7.247 12.84 7.247 1.336 0 2.689-.18 4.024-.552 6.487-1.807 10.976-7.715 10.976-14.45v-130.001c0-3.246-1.053-6.403-3-9z" fill="#61729b"/><path d="m390.039 369.865-5.72-67.705c-.515-6.099-4.685-11.274-10.535-13.074l-42.783-13.164-75 66.079v170.002c5.157 0 10.075-2.67 12.84-7.247l71.643-118.627h34.609c4.197 0 8.203-1.759 11.044-4.85 2.84-3.091 4.255-7.231 3.902-11.414z" fill="#47568c"/></g></svg>